<svg xmlns="http://www.w3.org/2000/svg" width="80pt" height="70pt" viewBox="0 0 354.702 60" class="font">
  <defs>
    <linearGradient gradientTransform="rotate(25)" id="a" x1="0%" y1="0%" x2="100%" y2="0%">
      <stop offset="0%" style="stop-color:#8d2ce3;stop-opacity:1"/>
      <stop offset="100%" style="stop-color:#f7c6f6;stop-opacity:1"/>
    </linearGradient>
  </defs>
  <path d="M7.87 8.13q.82.98.82 2.2-.02 1.4-.95 2.35-.94.94-2.27.94H1.79q-.98 0-1.15-.53-.08-.24-.08-.73V4.59q0-.33.02-.49.02-.15.13-.36.2-.38 1.1-.38h3.52q1.29 0 2.16.9.91.91.91 2.18 0 .92-.53 1.69Zm-1.65 2.06q0-.33-.08-.53t-.26-.28q-.28-.11-.78-.11-.51 0-.76-.2-.25-.19-.25-.8 0-.61.26-.81.26-.19.86-.19.56 0 .67-.3.04-.15.04-.5t-.23-.49q-.23-.14-.69-.14H3.04v5.3h2.29q.89 0 .89-.95Zm5.86-5.57v6.94h3.81q.46 0 .67.11.21.1.28.33.07.22.07.59t-.07.6q-.07.22-.24.31-.26.14-.72.14h-5.04q-.98 0-1.15-.54-.09-.22-.09-.71V4.61q0-.33.03-.49.02-.16.13-.37.19-.38 1.09-.38.98 0 1.16.52.07.24.07.73Zm11.66-.52 3.78 7.81q.24.48.24.72 0 .5-.81.91-.48.24-.75.24t-.45-.13q-.17-.13-.25-.27-.08-.14-.22-.42l-.72-1.51h-3.88l-.73 1.51q-.14.28-.22.41-.07.13-.25.26-.17.13-.45.13-.27 0-.75-.24-.81-.39-.81-.89 0-.24.24-.72l3.78-7.82q.15-.32.47-.52.31-.2.66-.2.76 0 1.12.73Zm-.19 5.28-.94-1.92-.92 1.92h1.86Zm11.32-5.63q.12-.21.38-.29.27-.09.67-.09.41 0 .65.07.24.07.36.17.13.1.2.28.07.24.07.73v7.77q0 .32-.02.48-.02.16-.14.37-.19.38-1.09.38-.98 0-1.15-.52-.08-.23-.08-.72V9.53h-3.71v2.86q0 .32-.02.48-.02.16-.13.37-.2.38-1.1.38-.98 0-1.14-.52-.09-.23-.09-.72V4.61q0-.33.02-.49.02-.16.14-.37.19-.38 1.09-.38.98 0 1.16.52.07.24.07.73v2.86h3.71V4.61q0-.33.02-.49.02-.16.13-.37Zm14.35.02q.12.21.14.37.02.17.02.49v7.77q0 .97-.53 1.14-.27.08-.68.08-.4 0-.64-.07t-.36-.17q-.13-.09-.2-.28-.07-.23-.07-.72V7.69q-.35.43-1.02 1.38-.67.94-.86 1.18-.18.24-.25.33-.07.09-.34.25t-.59.16q-.31 0-.57-.15-.26-.14-.37-.28l-.12-.16q-.28-.35-1.1-1.49-.83-1.14-.9-1.22v4.71q0 .33-.02.49-.02.16-.13.35-.21.38-1.09.38-.86 0-1.07-.38-.11-.19-.13-.36-.02-.17-.02-.5V4.61q0-.33.02-.49.02-.16.13-.37.21-.36 1.09-.36.38 0 .66.09.27.09.35.19l.09.08 3.17 4.17q2.38-3.15 3.18-4.15.24-.38 1.13-.38.89 0 1.08.38Zm1.28 8.62V4.61q0-.33.02-.49.02-.16.13-.37.2-.38 1.09-.38.98 0 1.17.52.07.24.07.73v7.78q0 .34-.02.49-.03.16-.14.37-.19.38-1.09.38-.98 0-1.15-.54-.08-.22-.08-.71Zm11.45-.49q.21.5.21.73 0 .53-.87.89-.45.2-.72.2-.27 0-.45-.13-.17-.14-.26-.28-.14-.26-1.09-2.53l-.43.03h-1.77v1.58q0 .32-.02.48-.02.16-.13.37-.2.38-1.09.38-.98 0-1.15-.52-.08-.23-.08-.72V4.61q0-.33.02-.49.02-.16.13-.37.2-.38 1.09-.38h3.03q1.23 0 2.39.9.56.43.92 1.18.37.74.37 1.65 0 1.58-1.05 2.6.31.74.95 2.2Zm-5.38-6.05v2.48h1.8q.4 0 .81-.31.4-.31.4-.92 0-.62-.4-.93-.41-.32-.84-.32h-1.77Z" fill="url(#a)" transform="translate(-3.225 -19.347) scale(5.75816)"/>
</svg>
