<svg xmlns="http://www.w3.org/2000/svg" width="70pt" height="70pt" viewBox="364.326 700.794 484.499 115.2">
  <defs>
    <style>
      .a{fill:#8764ce}
    </style>
  </defs>
<!--Outter Circle
<path class="a" fill-opacity="0"
	d="
M633.000000,1201.000000 
	C422.000000,1201.000000 211.500000,1201.000000 1.000000,1201.000000 
	C1.000000,801.000000 1.000000,401.000000 1.000000,1.000000 
	C401.000000,1.000000 801.000000,1.000000 1201.000000,1.000000 
	C1201.000000,401.000000 1201.000000,801.000000 1201.000000,1201.000000 
	C1011.833313,1201.000000 822.666687,1201.000000 633.000000,1201.000000 
M178.100342,558.496582 
	C177.942993,560.823608 177.831924,563.154785 177.621506,565.476990 
	C172.514145,621.844910 179.166870,676.999512 196.240967,730.755371 
	C214.493393,788.221008 243.993637,839.530579 284.414917,884.367920 
	C318.763855,922.469543 358.412415,953.814331 404.002045,977.603760 
	C454.606018,1004.009766 508.314423,1019.348450 565.123657,1024.375244 
	C621.161438,1029.333618 676.021606,1023.067444 729.463440,1006.159912 
	C799.488281,984.006042 859.772522,945.875183 910.197937,892.335815 
	C957.337219,842.285522 990.607300,784.286743 1009.486206,718.178040 
	C1024.473633,665.696289 1029.541260,612.193420 1023.776672,557.873474 
	C1018.819519,511.160706 1007.004395,466.266846 987.168396,423.498901 
	C953.583191,351.086578 903.597107,292.552399 837.663757,248.003128 
	C777.266907,207.194748 710.321716,183.974701 637.574036,177.721725 
	C570.998657,171.999283 506.615845,181.355759 444.517395,205.896637 
	C374.134216,233.711578 315.620270,277.682770 268.349426,336.678284 
	C233.958633,379.599091 209.162079,427.590057 193.444595,480.240204 
	C185.900360,505.511688 181.168106,531.392456 178.100342,558.496582 
z"/>-->
<!--Circle
<path class="a" fill-opacity="1"
	d="
M178.134583,558.042725 
	C181.168106,531.392456 185.900360,505.511688 193.444595,480.240204 
	C209.162079,427.590057 233.958633,379.599091 268.349426,336.678284 
	C315.620270,277.682770 374.134216,233.711578 444.517395,205.896637 
	C506.615845,181.355759 570.998657,171.999283 637.574036,177.721725 
	C710.321716,183.974701 777.266907,207.194748 837.663757,248.003128 
	C903.597107,292.552399 953.583191,351.086578 987.168396,423.498901 
	C1007.004395,466.266846 1018.819519,511.160706 1023.776672,557.873474 
	C1029.541260,612.193420 1024.473633,665.696289 1009.486206,718.178040 
	C990.607300,784.286743 957.337219,842.285522 910.197937,892.335815 
	C859.772522,945.875183 799.488281,984.006042 729.463440,1006.159912 
	C676.021606,1023.067444 621.161438,1029.333618 565.123657,1024.375244 
	C508.314423,1019.348450 454.606018,1004.009766 404.002045,977.603760 
	C358.412415,953.814331 318.763855,922.469543 284.414917,884.367920 
	C243.993637,839.530579 214.493393,788.221008 196.240967,730.755371 
	C179.166870,676.999512 172.514145,621.844910 177.621506,565.476990 
	C177.831924,563.154785 177.942993,560.823608 178.134583,558.042725 
M679.309753,1008.990845 
	C704.101807,1004.334778 728.198059,997.287537 751.675476,988.069031 
	C825.845886,958.945618 887.069275,912.534546 934.385437,848.586365 
	C987.037659,777.426392 1014.574768,697.301697 1016.258179,608.505066 
	C1017.294739,553.828369 1007.957520,501.065796 987.997375,450.180450 
	C958.965149,376.166901 912.625610,315.073792 848.861389,267.813904 
	C777.892273,215.214005 697.955322,187.601242 609.344360,185.759598 
	C554.502869,184.619812 501.560211,193.873154 450.497040,213.880005 
	C376.309082,242.947311 315.061554,289.339264 267.720062,353.268890 
	C215.040604,424.406860 187.468170,504.523560 185.748734,593.316040 
	C184.690048,647.988098 193.982178,700.757141 213.935852,751.653137 
	C242.888779,825.503723 289.180603,886.356445 352.563843,933.822144 
	C409.101166,976.161133 472.622955,1002.440125 542.698669,1012.307800 
	C588.102234,1018.701355 633.386414,1017.860474 679.309753,1008.990845 
z"/>-->
<!--Inner Circle
<path class="a" fill-opacity="0"
	d="
M678.883484,1009.043579 
	C633.386414,1017.860474 588.102234,1018.701355 542.698669,1012.307800 
	C472.622955,1002.440125 409.101166,976.161133 352.563843,933.822144 
	C289.180603,886.356445 242.888779,825.503723 213.935852,751.653137 
	C193.982178,700.757141 184.690048,647.988098 185.748734,593.316040 
	C187.468170,504.523560 215.040604,424.406860 267.720062,353.268890 
	C315.061554,289.339264 376.309082,242.947311 450.497040,213.880005 
	C501.560211,193.873154 554.502869,184.619812 609.344360,185.759598 
	C697.955322,187.601242 777.892273,215.214005 848.861389,267.813904 
	C912.625610,315.073792 958.965149,376.166901 987.997375,450.180450 
	C1007.957520,501.065796 1017.294739,553.828369 1016.258179,608.505066 
	C1014.574768,697.301697 987.037659,777.426392 934.385437,848.586365 
	C887.069275,912.534546 825.845886,958.945618 751.675476,988.069031 
	C728.198059,997.287537 704.101807,1004.334778 678.883484,1009.043579 
M444.993713,348.501190 
	C444.993927,411.159027 444.977661,473.816895 445.004974,536.474731 
	C445.012604,553.977173 454.791290,563.817688 472.274414,563.824524 
	C558.095520,563.858337 643.916626,563.856384 729.737732,563.826477 
	C747.562988,563.820251 756.976135,554.392517 756.998901,536.679749 
	C757.027710,514.349609 757.006226,492.019440 757.006165,469.689270 
	C757.005981,425.695557 756.967102,381.701752 757.040283,337.708160 
	C757.053650,329.659943 755.086121,322.575165 748.930542,317.018372 
	C743.343994,311.975342 736.586060,310.966461 729.398987,310.969635 
	C643.911194,311.007141 558.423340,310.993652 472.935547,310.995361 
	C471.602539,310.995392 470.267731,310.976776 468.936798,311.035645 
	C455.263794,311.640167 445.548157,321.345520 445.043732,335.005005 
	C444.890076,339.165649 445.002899,343.336151 444.993713,348.501190 
M384.118866,707.459106 
	C377.567474,740.741150 371.016052,774.023193 364.325836,808.010498 
	C375.428192,808.010498 385.714417,808.114868 395.996796,807.960754 
	C400.298706,807.896240 404.742798,807.869263 408.862274,806.812195 
	C422.269043,803.372009 432.622314,795.918152 436.302002,781.943237 
	C439.512421,769.750671 436.753906,759.117126 425.096924,751.986816 
	C428.153473,749.107239 431.127350,746.714539 433.608856,743.889404 
	C440.451691,736.098816 443.189301,727.038025 439.987488,716.984497 
	C436.975220,707.526062 429.043762,703.581543 420.051910,702.718994 
	C410.142944,701.768494 400.097687,702.323975 390.124512,701.913757 
	C386.425842,701.761658 384.446960,702.856018 384.118866,707.459106 
M687.790955,746.221680 
	C693.033508,746.896851 695.037964,749.001770 694.215332,754.596558 
	C693.005493,762.824097 691.188416,770.965454 689.527283,779.122681 
	C687.611145,788.532104 685.583252,797.918762 683.456787,808.013428 
	C685.971802,808.013428 687.797363,807.779114 689.540894,808.057800 
	C694.561829,808.860352 696.461609,806.715210 697.236938,801.796570 
	C698.531738,793.582947 700.257812,785.394836 702.458862,777.376160 
	C706.196655,763.759033 715.233337,754.142151 727.390808,747.594299 
	C734.041138,744.012451 738.287109,747.504456 737.461243,755.194397 
	C737.265869,757.013184 736.958252,758.826965 736.585388,760.618652 
	C734.549561,770.402100 732.460571,780.174377 730.423584,789.957642 
	C729.218750,795.744385 728.076111,801.544128 726.769165,808.012878 
	C729.387695,808.012878 731.228455,807.763794 732.976562,808.060547 
	C737.837463,808.885559 739.570862,806.766235 740.399536,802.079041 
	C742.195984,791.918213 744.710144,781.886108 746.817444,771.777710 
	C748.176697,765.257751 749.637939,758.736267 750.515259,752.143860 
	C752.023926,740.808105 745.697571,733.872742 734.383972,735.214417 
	C729.492493,735.794495 724.550476,738.200195 720.239197,740.788818 
	C715.917419,743.383789 712.353027,747.240112 708.119324,750.829651 
	C707.810608,749.436523 707.523682,748.376282 707.345032,747.298218 
	C705.892456,738.533020 701.566040,734.880249 692.745789,734.964783 
	C683.762939,735.050781 677.110352,739.955933 670.778076,745.538635 
	C669.391235,746.761353 667.995361,747.973816 666.603638,749.190979 
	C666.262207,748.960083 665.920837,748.729126 665.579407,748.498230 
	C666.236328,744.509033 666.893188,740.519836 667.654419,735.897034 
	C665.208435,736.304321 663.457092,736.864441 661.715332,736.836060 
	C656.319702,736.747986 654.581421,739.580750 653.592896,744.619385 
	C649.841553,763.739563 645.559021,782.755432 641.503174,801.816284 
	C641.105408,803.685852 640.899963,805.596313 640.523499,808.012939 
	C642.966858,808.012939 644.816101,807.755127 646.566223,808.062134 
	C651.488647,808.925476 653.216492,806.659668 653.978455,802.036743 
	C655.277222,794.157104 657.014832,786.333557 658.923889,778.574036 
	C662.739075,763.066528 672.624146,752.727234 687.790955,746.221680 
M590.304138,758.822571 
	C595.187866,755.117615 599.794678,750.924561 605.079285,747.926025 
	C607.503235,746.550781 612.197815,746.289673 614.147156,747.774963 
	C616.111084,749.271118 616.881470,753.672119 616.529114,756.602478 
	C615.696655,763.525269 613.900635,770.333374 612.468506,777.182556 
	C610.367920,787.229065 608.244934,797.270813 605.984253,808.014160 
	C608.677673,808.014160 610.678040,807.754883 612.585693,808.065369 
	C617.281799,808.829712 618.862183,806.598022 619.686340,802.271973 
	C621.868591,790.817810 624.595520,779.468689 626.901184,768.036438 
	C628.150024,761.844055 629.558167,755.595276 629.861328,749.322021 
	C630.291382,740.422424 624.551147,735.160767 615.629639,734.931335 
	C605.504822,734.671143 597.933105,739.898376 590.786438,746.138855 
	C589.355225,747.388611 587.977966,748.700195 586.575867,749.983276 
	C586.183960,749.764282 585.792053,749.545349 585.400085,749.326355 
	C589.143738,731.377319 592.887329,713.428223 596.773865,694.794006 
	C594.265015,695.280273 592.813049,695.829712 591.375854,695.793518 
	C585.388733,695.643127 583.380005,698.790039 582.255493,704.404724 
	C577.184387,729.725037 571.607178,754.943787 566.236206,780.204163 
	C564.311584,789.255798 562.453857,798.321533 560.498108,807.704834 
	C565.004578,807.704834 568.753723,807.704834 572.771606,807.704834 
	C574.520874,799.491699 576.571655,791.572266 577.825867,783.528564 
	C579.295837,774.101624 583.224365,766.114319 590.304138,758.822571 
M542.065430,806.658936 
	C542.135437,799.795837 541.565857,792.850037 542.439270,786.090759 
	C543.501831,777.868225 545.800110,769.807068 547.526062,761.668091 
	C549.238037,753.594849 550.903076,745.511658 552.719543,736.805725 
	C544.865906,736.158264 537.772461,735.442078 530.661499,735.021057 
	C521.963623,734.505981 514.106873,737.330933 507.482819,742.697388 
	C491.669678,755.508362 484.407990,772.360657 485.269440,792.659790 
	C485.366119,794.938477 486.063690,797.262756 486.859039,799.427612 
	C489.399048,806.340576 494.765991,809.903442 502.137024,810.028381 
	C510.417755,810.168762 516.733521,806.063110 522.451965,800.737244 
	C524.332214,798.986145 525.852905,796.848938 527.538025,794.888306 
	C528.793335,797.442505 528.880981,799.198608 528.959595,800.955200 
	C529.343018,809.525269 530.786926,810.586914 538.579102,808.006653 
	C539.524963,807.693359 540.454895,807.331848 542.065430,806.658936 
M451.940826,807.998047 
	C461.238586,808.045288 461.216644,808.040588 463.162689,798.912720 
	C469.335999,769.957458 475.534912,741.007629 481.704498,712.051575 
	C482.865967,706.600464 483.937805,701.130249 485.211243,694.882751 
	C482.394257,695.323425 480.484955,695.904724 478.588959,695.864014 
	C473.540558,695.755676 471.777008,698.490295 471.070435,703.078796 
	C470.160614,708.987000 468.659729,714.804199 467.416412,720.661255 
	C461.579681,748.157104 455.712036,775.646484 449.996918,803.167542 
	C449.694000,804.626160 450.682739,806.353027 451.940826,807.998047 
M805.030457,765.302612 
	C802.090393,779.274902 799.150269,793.247253 796.042908,808.014709 
	C798.915100,808.014709 801.221863,807.766052 803.453979,808.068787 
	C807.523193,808.620667 808.946167,806.725891 809.593323,802.974548 
	C810.751831,796.259033 812.590027,789.660095 813.731934,782.942444 
	C815.847961,770.494080 823.132141,761.107544 831.488403,752.387512 
	C834.569641,749.172119 838.441406,747.456055 843.268372,748.522827 
	C844.303772,748.751648 846.322083,747.299561 846.915466,746.129028 
	C847.863831,744.258301 847.913147,741.951050 848.496521,739.871582 
	C849.406616,736.627930 848.136353,735.280457 844.902039,734.974792 
	C838.558716,734.375366 833.536255,736.948975 829.276306,741.270874 
	C826.638367,743.947144 824.272827,746.891907 820.748474,750.892883 
	C821.810303,744.824707 822.612854,740.238098 823.485596,735.250122 
	C820.847839,735.610657 818.912659,735.953979 816.962463,736.125610 
	C812.698059,736.500916 810.273621,738.153625 809.628357,742.981079 
	C808.661560,750.214478 806.713440,757.316650 805.030457,765.302612 
M762.328613,802.487488 
	C762.083313,804.092224 761.838013,805.696960 761.534485,807.682800 
	C763.359985,807.810974 764.807129,808.026489 766.248840,807.995056 
	C774.278748,807.819702 773.257019,809.446594 775.089050,800.901184 
	C778.537170,784.818359 782.007690,768.740295 785.442810,752.654663 
	C786.506287,747.674683 787.484924,742.676575 788.579407,737.309326 
	C786.520325,737.175232 785.067322,736.973389 783.619202,737.004150 
	C775.638733,737.174072 776.705994,735.581604 774.860779,744.185730 
	C770.749878,763.354309 766.630554,782.521057 762.328613,802.487488 
M780.601929,707.429626 
	C779.715637,711.363831 779.524109,715.170715 783.710938,717.428162 
	C787.492615,719.467163 792.582336,717.722900 794.961548,713.808228 
	C797.436768,709.735901 796.820312,704.249146 793.641235,702.056946 
	C790.258423,699.724060 785.213745,700.797729 782.135437,704.556335 
	C781.618530,705.187500 781.295227,705.977173 780.601929,707.429626 
z"/>-->
<!--Outter Box-->
  <path class="a" fill-opacity="0" d="M444.994 348.002c.009-4.666-.104-8.836.05-12.997.504-13.66 10.22-23.365 23.893-23.97 1.33-.058 2.666-.04 3.999-.04 85.487-.001 170.975.012 256.463-.025 7.187-.004 13.945 1.005 19.532 6.048 6.155 5.557 8.123 12.642 8.11 20.69-.074 43.994-.035 87.988-.035 131.981 0 22.33.022 44.66-.007 66.99-.023 17.714-9.436 27.141-27.261 27.147-85.821.03-171.642.032-257.464-.001-17.483-.007-27.261-9.848-27.269-27.35-.027-62.658-.011-125.316-.011-188.473M623.5 546.995c35.163 0 70.326.003 105.488-.002 9.612-.001 11.165-1.502 11.167-10.91.01-47.661-.075-95.323.121-142.984.02-5.067-1.336-6.38-6.384-6.37-88.49.155-176.98.11-265.47.114-6.563 0-6.579.014-6.58 6.443-.003 47.328-.005 94.656.002 141.984.001 9.774 1.948 11.722 11.672 11.723 49.662.004 99.323.002 149.984.002m-10-218.99c-47.135 0-94.27-.008-141.406.01-7.586.004-9.83 2.258-9.916 9.81-.048 4.33-.01 8.66-.011 12.99v19.344h271.007c1 0 2.008-.096 2.996.007 3.057.32 4.071-1.042 4.028-4.041-.13-8.993-.03-17.988-.042-26.982-.014-9-2.155-11.131-11.232-11.133-38.141-.01-76.283-.004-115.424-.005z"/>
<!--Letter B-->
  <path class="a" d="M384.19 707.047c.257-4.191 2.236-5.285 5.935-5.133 9.973.41 20.018-.146 29.927.805 8.992.863 16.923 4.807 19.935 14.265 3.202 10.054.465 19.115-6.378 26.905-2.482 2.826-5.456 5.218-8.512 8.098 11.657 7.13 14.415 17.764 11.205 29.956-3.68 13.975-14.033 21.429-27.44 24.87-4.12 1.056-8.563 1.083-12.865 1.148-10.283.154-20.569.05-31.671.05 6.69-33.988 13.241-67.27 19.864-100.964m33.053 82.706c.959-1.148 2.036-2.217 2.86-3.455 8.013-12.051 2.764-24.699-11.365-26.616-6.222-.845-12.613-.645-18.918-.497-1.138.026-2.911 1.943-3.225 3.264-1.611 6.795-2.855 13.678-4.202 20.535-.881 4.486-1.72 8.98-2.684 14.022 6.952 0 13.081.119 19.204-.032 6.677-.164 12.737-2.189 18.33-7.221m-21.284-75.346-6.702 33.721h15.061c10.468-.001 20.539-8.332 22.59-18.683 1.476-7.455-.944-13.562-7.476-14.714-7.528-1.327-15.378-.828-23.473-.324z"/>
<!--Letter m-->
  <path class="a" d="M687.42 746.325c-14.796 6.402-24.68 16.742-28.496 32.249-1.91 7.76-3.647 15.583-4.946 23.463-.762 4.623-2.49 6.888-7.412 6.025-1.75-.307-3.6-.05-6.043-.05.377-2.416.582-4.326.98-6.196 4.056-19.06 8.339-38.076 12.09-57.197.988-5.038 2.727-7.871 8.122-7.783 1.742.028 3.493-.532 5.94-.939l-2.076 12.601 1.025.693c1.391-1.217 2.787-2.43 4.174-3.652 6.332-5.583 12.985-10.488 21.968-10.574 8.82-.085 13.146 3.568 14.599 12.333.179 1.078.466 2.139.774 3.532 4.234-3.59 7.798-7.446 12.12-10.041 4.311-2.589 9.253-4.995 14.145-5.575 11.314-1.341 17.64 5.594 16.131 16.93-.877 6.592-2.338 13.114-3.698 19.634-2.107 10.108-4.621 20.14-6.417 30.301-.83 4.687-2.563 6.807-7.423 5.982-1.749-.297-3.59-.048-6.208-.048 1.307-6.469 2.45-12.269 3.655-18.055 2.037-9.784 4.126-19.556 6.161-29.34.373-1.791.68-3.605.876-5.424.826-7.69-3.42-11.182-10.07-7.6-12.158 6.548-21.194 16.165-24.932 29.782-2.201 8.019-3.927 16.207-5.222 24.42-.775 4.92-2.675 7.064-7.696 6.262-1.744-.279-3.57-.045-6.084-.045 2.126-10.094 4.154-19.48 6.07-28.89 1.661-8.158 3.478-16.299 4.688-24.526.823-5.595-1.181-7.7-6.796-8.272m-21.898 3.865-.124.309s.312-.084.124-.309z"/>
<!--Letter h-->
  <path class="a" d="M590.056 759.076c-6.832 7.038-10.76 15.026-12.23 24.453-1.254 8.043-3.305 15.963-5.054 24.176h-12.274c1.956-9.383 3.814-18.45 5.738-27.5 5.371-25.261 10.948-50.48 16.02-75.8 1.124-5.615 3.133-8.762 9.12-8.611 1.437.036 2.889-.514 5.398-1L585.4 749.326l1.176.657c1.402-1.283 2.78-2.594 4.21-3.844 7.147-6.24 14.719-11.468 24.844-11.208 8.921.23 14.661 5.491 14.231 14.391-.303 6.273-1.711 12.522-2.96 18.714-2.305 11.433-5.032 22.782-7.215 34.236-.824 4.326-2.404 6.558-7.1 5.793-1.908-.31-3.908-.05-6.602-.05 2.26-10.744 4.384-20.786 6.485-30.832 1.432-6.85 3.228-13.658 4.06-20.58.352-2.93-.418-7.332-2.382-8.828-1.95-1.485-6.644-1.224-9.068.151-5.284 2.999-9.891 7.192-15.023 11.15z"/>
<!--Letter a-->
  <path class="a" d="M541.729 806.826c-1.274.506-2.204.867-3.15 1.18-7.792 2.58-9.236 1.52-9.62-7.05-.078-1.757-.166-3.513-1.421-6.068-1.685 1.96-3.206 4.098-5.086 5.85-5.718 5.325-12.034 9.43-20.315 9.29-7.371-.125-12.738-3.687-15.278-10.6-.795-2.165-1.493-4.49-1.59-6.768-.861-20.3 6.4-37.152 22.214-49.963 6.624-5.366 14.48-8.191 23.178-7.676 7.111.421 14.205 1.137 22.059 1.785-1.817 8.706-3.482 16.789-5.194 24.862-1.726 8.14-4.024 16.2-5.087 24.423-.873 6.759-.304 13.705-.71 20.735m-39.582-37.996c-3.006 7.688-4.88 15.566-3.26 23.85 1.233 6.293 5.207 8.204 11.051 5.506a21.538 21.538 0 0 0 3.835-2.296c16.473-12.312 22.028-29.915 24.101-49.39-7.897-2.93-15.453-2.09-21.147 3.42-5.488 5.31-9.56 12.083-14.58 18.91z"/>
<!--Letter L-->
  <path class="a" d="M451.505 807.977c-.822-1.624-1.811-3.35-1.508-4.81 5.715-27.52 11.583-55.01 17.42-82.506 1.243-5.857 2.744-11.674 3.653-17.582.707-4.589 2.47-7.323 7.519-7.215 1.896.04 3.805-.54 6.622-.981-1.273 6.247-2.345 11.717-3.507 17.169-6.17 28.956-12.368 57.905-18.541 86.86-1.946 9.129-1.924 9.133-11.658 9.065z"/>
<!--Letter R-->
  <path class="a" d="M805.107 764.889c1.606-7.572 3.555-14.675 4.521-21.908.646-4.827 3.07-6.48 7.334-6.855 1.95-.172 3.886-.515 6.524-.876l-2.738 15.643c3.525-4.001 5.89-6.946 8.528-9.622 4.26-4.322 9.283-6.896 15.626-6.296 3.234.305 4.505 1.653 3.595 4.897-.584 2.08-.633 4.386-1.582 6.257-.593 1.17-2.611 2.623-3.647 2.394-4.827-1.067-8.698.65-11.78 3.865-8.356 8.72-15.64 18.106-17.756 30.554-1.142 6.718-2.98 13.317-4.139 20.033-.647 3.75-2.07 5.646-6.139 5.094-2.232-.303-4.539-.054-7.411-.054 3.107-14.768 6.047-28.74 9.064-43.126z"/>
<!--Letter I-->
  <path class="a" d="M762.422 802.088a97347.84 97347.84 0 0 0 12.439-57.902c1.845-8.604.778-7.012 8.758-7.182 1.448-.03 2.901.171 4.96.305-1.094 5.368-2.073 10.366-3.136 15.346-3.435 16.085-6.906 32.163-10.354 48.246-1.832 8.546-.81 6.919-8.84 7.094-1.442.031-2.889-.184-4.715-.312.304-1.986.55-3.59.888-5.595z"/>
<!--Letter I dot-->
  <path class="a" d="M780.742 707.062c.553-1.085.877-1.875 1.393-2.506 3.079-3.758 8.123-4.832 11.506-2.5 3.18 2.193 3.796 7.68 1.32 11.752-2.379 3.915-7.468 5.66-11.25 3.62-4.187-2.257-3.995-6.064-2.969-10.366z"/>
<!--Coding Box background-->
  <path class="a" fill-opacity="0" d="M623 546.995c-50.161 0-99.822.002-149.484-.002-9.724-.001-11.67-1.95-11.672-11.723-.007-47.328-.005-94.656-.001-141.984 0-6.429.016-6.443 6.578-6.443 88.49-.003 176.98.04 265.47-.114 5.049-.01 6.406 1.303 6.385 6.37-.196 47.661-.111 95.323-.121 142.984-.002 9.408-1.555 10.909-11.167 10.91-35.162.005-70.325.002-105.988.002M496.688 441.453c-2.487.146-5.025.027-7.45.496-4.41.854-7.089 4.428-6.805 8.55.291 4.243 3.275 7.164 7.83 7.57 1.49.133 2.995.102 4.493.102 71.105.004 142.21.003 213.317-.002 1.497 0 3-.003 4.492-.12 4.548-.354 6.988-3.142 7.373-7.392.39-4.308-1.78-7.49-6.047-8.549-2.54-.63-5.278-.63-7.927-.631-69.44-.03-138.88-.024-209.276-.024m45.812 87.546c54.783 0 109.566.004 164.349-.016 2.153 0 4.355.001 6.45-.42 4.32-.867 6.698-3.785 6.689-8.11-.01-4.122-2.464-6.875-6.397-7.911-2.048-.54-4.28-.52-6.428-.521-70.602-.024-141.204-.022-211.806-.013-1.828 0-3.696-.103-5.476.225-3.951.728-6.644 2.94-7.298 7.13-.862 5.535 3.156 9.562 9.962 9.6 16.318.093 32.637.034 49.955.036m66-52.166c-6.825 0-13.65-.004-20.475 0-12.818.008-25.636-.077-38.452.075-5.64.067-8.742 3.116-8.878 8.04-.136 4.953 2.77 8.076 8.252 8.78 1.149.148 2.326.108 3.49.108 51.77.004 103.54.006 155.31-.011 1.655 0 3.345-.037 4.959-.36 4.682-.936 7.568-4.438 7.319-8.65-.262-4.44-3.268-7.391-8.155-7.872-1.65-.162-3.325-.106-4.99-.106-32.46-.005-64.92-.004-98.38-.004m67-53.992c10.814-.001 21.628.05 32.44-.045 2.297-.02 5.147.166 6.747-1.051 2.27-1.726 4.9-4.612 5-7.1.104-2.517-2.226-5.676-4.368-7.553-1.444-1.265-4.41-1.05-6.697-1.057-22.293-.066-44.586-.043-66.879-.04-13.309.002-26.619-.066-39.927.06-5.098.048-8.51 3.236-8.837 7.677-.333 4.514 2.577 7.966 7.676 8.846 1.785.308 3.644.252 5.469.253 22.792.015 45.584.01 69.376.01z"/>
<!--Top Coding Box background-->
  <path class="a" d="M614 328.005c38.641 0 76.783-.004 114.924.005 9.077.002 11.218 2.133 11.232 11.133.013 8.994-.088 17.99.042 26.982.043 2.999-.97 4.36-4.028 4.041-.988-.103-1.997-.007-2.996-.007H462.167v-19.343c0-4.33-.037-8.661.011-12.991.086-7.552 2.33-9.806 9.916-9.81 47.135-.018 94.27-.01 141.906-.01m-140.207 18.366c-.78 6.1 1.07 9.833 5.838 11.781 4.22 1.725 8.91.387 11.515-3.285 3.573-5.036 2.533-11.16-2.445-14.393-5.319-3.455-11.063-1.448-14.908 5.897m36.95-5.281c-4.584 5.088-4.974 10.416-1.07 14.623 3.424 3.69 9.119 4.19 13.103 1.153 4.293-3.273 5.309-8.776 2.447-13.255-3.12-4.88-7.936-5.905-14.48-2.521m30.187 9.732c1.863 5.657 6.081 8.71 10.944 7.923 5.384-.872 8.976-5.698 8.32-11.181-.593-4.97-4.971-8.76-9.966-8.628-5.681.15-9.243 4.38-9.298 11.886z"/>
<!--Top Inside B filling-->
  <path class="a" fill-opacity="0" d="M416.982 790.003c-5.332 4.782-11.392 6.807-18.07 6.971-6.122.15-12.25.032-19.203.032.963-5.041 1.803-9.536 2.684-14.022 1.347-6.857 2.59-13.74 4.202-20.535.314-1.321 2.087-3.238 3.225-3.264 6.305-.148 12.696-.348 18.918.497 14.129 1.917 19.378 14.565 11.364 26.616-.823 1.238-1.9 2.307-3.12 3.705z"/>
<!--Bottom Inside B filling-->
  <path class="a" fill-opacity="0" d="M396.15 714.008c7.904-.105 15.754-.604 23.282.723 6.532 1.152 8.952 7.26 7.475 14.714-2.05 10.351-12.121 18.682-22.589 18.683h-15.06c2.33-11.733 4.516-22.727 6.893-34.12z"/>
<!--Part of the I?-->
  <path class="a" d="M665.615 750.302c.094.113-.218.197-.218.197s.124-.309.218-.197z"/>
<!--Inside Letter a-->
  <path class="a" fill-opacity="0" d="M502.31 768.481c4.856-6.478 8.929-13.251 14.417-18.561 5.694-5.51 13.25-6.35 21.147-3.42-2.073 19.475-7.628 37.078-24.101 49.39a21.538 21.538 0 0 1-3.835 2.296c-5.844 2.698-9.818.787-11.05-5.507-1.622-8.283.253-16.16 3.421-24.198z"/>
<!--1st code bar-->
  <path class="a" d="M675 422.841c-23.292 0-46.084.005-68.876-.01-1.825-.001-3.684.055-5.469-.253-5.1-.88-8.009-4.332-7.676-8.846.327-4.441 3.74-7.629 8.837-7.677 13.308-.126 26.618-.058 39.927-.06 22.293-.003 44.586-.026 66.879.04 2.287.007 5.253-.208 6.697 1.057 2.142 1.877 4.472 5.036 4.369 7.554-.102 2.487-2.731 5.373-5 7.099-1.601 1.217-4.451 1.031-6.747 1.051-10.813.095-21.627.044-32.941.045z"/>
<!--2nd code bar-->
  <path class="a" d="M497.166 441.453c69.918 0 139.358-.006 208.798.024 2.65.001 5.387 0 7.927.631 4.267 1.06 6.437 4.24 6.047 8.55-.385 4.249-2.825 7.037-7.373 7.391-1.492.117-2.995.12-4.492.12-71.106.005-142.212.006-213.317.002-1.498 0-3.004.031-4.493-.101-4.555-.407-7.539-3.328-7.83-7.57-.284-4.123 2.395-7.697 6.806-8.55 2.424-.47 4.962-.35 7.927-.497z"/>
<!--3rd code bar-->
  <path class="a" d="M609 476.833c32.96 0 65.42-.001 97.88.004 1.665 0 3.34-.056 4.99.106 4.887.48 7.893 3.432 8.155 7.872.249 4.212-2.637 7.714-7.32 8.65-1.613.323-3.303.36-4.958.36-51.77.017-103.54.015-155.31.01-1.164 0-2.341.041-3.49-.106-5.482-.705-8.388-3.828-8.252-8.782.136-4.923 3.237-7.972 8.878-8.039 12.816-.152 25.634-.067 38.452-.074 6.825-.005 13.65-.001 20.975-.001z"/>
<!--4th code bar-->
  <path class="a" fill-opacity="0" d="M542 529c-16.818-.003-33.137.056-49.455-.036-6.806-.039-10.824-4.066-9.962-9.601.654-4.19 3.347-6.402 7.298-7.13 1.78-.328 3.648-.225 5.476-.225 70.602-.009 141.204-.011 211.806.013 2.149 0 4.38-.02 6.428.52 3.933 1.037 6.388 3.79 6.397 7.912.01 4.325-2.369 7.243-6.69 8.11-2.094.421-4.296.42-6.45.42-54.782.02-109.565.016-164.848.016z"/>
<!--Three Window buttons-->
  <path class="a" d="M473.874 345.998c3.764-6.972 9.508-8.979 14.827-5.524 4.978 3.234 6.018 9.357 2.445 14.393-2.605 3.672-7.294 5.01-11.515 3.285-4.767-1.948-6.617-5.681-5.757-12.154zm37.197-5.118c6.216-3.174 11.033-2.15 14.152 2.731 2.862 4.479 1.846 9.982-2.447 13.255-3.984 3.038-9.68 2.536-13.104-1.153-3.903-4.207-3.513-9.535 1.4-14.834zm29.812 9.578c.102-7.142 3.664-11.373 9.345-11.522 4.995-.131 9.373 3.659 9.967 8.628.655 5.483-2.937 10.309-8.321 11.181-4.863.788-9.081-2.266-10.991-8.287z"/>
</svg>
