<svg xmlns="http://www.w3.org/2000/svg" width="100" height="100" viewBox="364.326 700.794 484.499 115.2">
  <path d="M384.19 707.047c.257-4.191 2.236-5.285 5.935-5.133 9.973.41 20.018-.146 29.927.805 8.992.863 16.923 4.807 19.935 14.265 3.202 10.054.465 19.115-6.378 26.905-2.482 2.826-5.456 5.218-8.512 8.098 11.657 7.13 14.415 17.764 11.205 29.956-3.68 13.975-14.033 21.429-27.44 24.87-4.12 1.056-8.563 1.083-12.865 1.148-10.283.154-20.569.05-31.671.05 6.69-33.988 13.241-67.27 19.864-100.964m33.053 82.706c.959-1.148 2.036-2.217 2.86-3.455 8.013-12.051 2.764-24.699-11.365-26.616-6.222-.845-12.613-.645-18.918-.497-1.138.026-2.911 1.943-3.225 3.264-1.611 6.795-2.855 13.678-4.202 20.535-.881 4.486-1.72 8.98-2.684 14.022 6.952 0 13.081.119 19.204-.032 6.677-.164 12.737-2.189 18.33-7.221m-21.284-75.346-6.702 33.721h15.061c10.468-.001 20.539-8.332 22.59-18.683 1.476-7.455-.944-13.562-7.476-14.714-7.528-1.327-15.378-.828-23.473-.324zm55.546 93.57c-.822-1.624-1.811-3.35-1.508-4.81 5.715-27.52 11.583-55.01 17.42-82.506 1.243-5.857 2.744-11.674 3.653-17.582.707-4.589 2.47-7.323 7.519-7.215 1.896.04 3.805-.54 6.622-.981-1.273 6.247-2.345 11.717-3.507 17.169-6.17 28.956-12.368 57.905-18.541 86.86-1.946 9.129-1.924 9.133-11.658 9.065zm353.602-43.088c1.606-7.572 3.555-14.675 4.521-21.908.646-4.827 3.07-6.48 7.334-6.855 1.95-.172 3.886-.515 6.524-.876l-2.738 15.643c3.525-4.001 5.89-6.946 8.528-9.622 4.26-4.322 9.283-6.896 15.626-6.296 3.234.305 4.505 1.653 3.595 4.897-.584 2.08-.633 4.386-1.582 6.257-.593 1.17-2.611 2.623-3.647 2.394-4.827-1.067-8.698.65-11.78 3.865-8.356 8.72-15.64 18.106-17.756 30.554-1.142 6.718-2.98 13.317-4.139 20.033-.647 3.75-2.07 5.646-6.139 5.094-2.232-.303-4.539-.054-7.411-.054 3.107-14.768 6.047-28.74 9.064-43.126zm-42.685 37.199a97347.84 97347.84 0 0 0 12.439-57.902c1.845-8.604.778-7.012 8.758-7.182 1.448-.03 2.901.171 4.96.305-1.094 5.368-2.073 10.366-3.136 15.346-3.435 16.085-6.906 32.163-10.354 48.246-1.832 8.546-.81 6.919-8.84 7.094-1.442.031-2.889-.184-4.715-.312.304-1.986.55-3.59.888-5.595zm18.32-95.026c.553-1.085.877-1.875 1.393-2.506 3.079-3.758 8.123-4.832 11.506-2.5 3.18 2.193 3.796 7.68 1.32 11.752-2.379 3.915-7.468 5.66-11.25 3.62-4.187-2.257-3.995-6.064-2.969-10.366zM541.73 806.826c-1.274.506-2.204.867-3.15 1.18-7.792 2.58-9.236 1.52-9.62-7.05-.078-1.757-.166-3.513-1.421-6.068-1.685 1.96-3.206 4.098-5.086 5.85-5.718 5.325-12.034 9.43-20.315 9.29-7.371-.125-12.738-3.687-15.278-10.6-.795-2.165-1.493-4.49-1.59-6.768-.861-20.3 6.4-37.152 22.214-49.963 6.624-5.366 14.48-8.191 23.178-7.676 7.111.421 14.205 1.137 22.059 1.785-1.817 8.706-3.482 16.789-5.194 24.862-1.726 8.14-4.024 16.2-5.087 24.423-.873 6.759-.304 13.705-.71 20.735m-39.582-37.996c-3.006 7.688-4.88 15.566-3.26 23.85 1.233 6.293 5.207 8.204 11.051 5.506a21.538 21.538 0 0 0 3.835-2.296c16.473-12.312 22.028-29.915 24.101-49.39-7.897-2.93-15.453-2.09-21.147 3.42-5.488 5.31-9.56 12.083-14.58 18.91zm87.91-9.754c-6.833 7.038-10.761 15.026-12.231 24.453-1.254 8.043-3.305 15.963-5.054 24.176h-12.274c1.956-9.383 3.814-18.45 5.738-27.5 5.371-25.261 10.948-50.48 16.02-75.8 1.124-5.615 3.133-8.762 9.12-8.611 1.437.036 2.889-.514 5.398-1L585.4 749.326l1.176.657c1.402-1.283 2.78-2.594 4.21-3.844 7.147-6.24 14.719-11.468 24.844-11.208 8.921.23 14.661 5.491 14.231 14.391-.303 6.273-1.711 12.522-2.96 18.714-2.305 11.433-5.032 22.782-7.215 34.236-.824 4.326-2.404 6.558-7.1 5.793-1.908-.31-3.908-.05-6.602-.05 2.26-10.744 4.384-20.786 6.485-30.832 1.432-6.85 3.228-13.658 4.06-20.58.352-2.93-.418-7.332-2.382-8.828-1.95-1.485-6.644-1.224-9.068.151-5.284 2.999-9.891 7.192-15.023 11.15zm97.362-12.751c-14.795 6.402-24.68 16.742-28.495 32.249-1.91 7.76-3.647 15.583-4.946 23.463-.762 4.623-2.49 6.888-7.412 6.025-1.75-.307-3.6-.05-6.043-.05.377-2.416.582-4.326.98-6.196 4.056-19.06 8.339-38.076 12.09-57.197.988-5.038 2.727-7.871 8.122-7.783 1.742.028 3.493-.532 5.94-.939l-2.076 12.601 1.025.693c1.391-1.217 2.787-2.43 4.174-3.652 6.332-5.583 12.985-10.488 21.968-10.574 8.82-.085 13.146 3.568 14.599 12.333.179 1.078.466 2.139.774 3.532 4.234-3.59 7.798-7.446 12.12-10.041 4.311-2.589 9.253-4.995 14.145-5.575 11.314-1.341 17.64 5.594 16.131 16.93-.877 6.592-2.338 13.114-3.698 19.634-2.107 10.108-4.621 20.14-6.417 30.301-.83 4.687-2.563 6.807-7.423 5.982-1.749-.297-3.59-.048-6.208-.048 1.307-6.469 2.45-12.269 3.655-18.055 2.037-9.784 4.126-19.556 6.161-29.34.373-1.791.68-3.605.876-5.424.826-7.69-3.42-11.182-10.07-7.6-12.158 6.548-21.194 16.165-24.932 29.782-2.201 8.019-3.927 16.207-5.222 24.42-.775 4.92-2.675 7.064-7.696 6.262-1.744-.279-3.57-.045-6.084-.045 2.126-10.094 4.154-19.48 6.07-28.89 1.661-8.158 3.478-16.299 4.688-24.526.823-5.595-1.181-7.7-6.796-8.272m-21.898 3.865-.124.309s.312-.084.124-.309z" style="fill:#4286f4"/>
</svg>
